# xmcd
#
# Track frame offsets: 
#        150
#        22632
#        39767
#        55098
#        70614
#        84707
#        102834
#        120228
#        137710
#        153921
#
# Disc length: 2267 seconds
#
# Revision: 0
# Processed by: cddbd v1.5.2PL0 Copyright (c) Steve Scherf et al.
# Submitted via: ExactAudioCopy v0.95b4
#
DISCID=6808d90a
DTITLE=The Cave Singers - Invitation Songs
DYEAR=2007
DGENRE=Alternative
TTITLE0=Seeds Of Night
TTITLE1=Helen
TTITLE2=Dancing on Our Graves
TTITLE3=Cold Eye
TTITLE4=Royal Lawns
TTITLE5=Elephant Clouds
TTITLE6=New Monuments
TTITLE7=Oh Christine
TTITLE8=Bricks of Our Home
TTITLE9=Called
EXTD=
EXTT0=
EXTT1=
EXTT2=
EXTT3=
EXTT4=
EXTT5=
EXTT6=
EXTT7=
EXTT8=
EXTT9=
PLAYORDER=
